<svg width="16" height="13" viewBox="0 0 16 13" fill="none" xmlns="http://www.w3.org/2000/svg">
<path d="M2.64861 12.8H13.3514C14.813 12.8 16 11.5801 16 10.0779V2.72214C16 1.21991 14.813 0 13.3514 0H2.64861C1.18696 0 0 1.21991 0 2.72214V10.0779C0 11.5801 1.18696 12.8 2.64861 12.8ZM14.992 10.0779C14.992 11.0077 14.2561 11.764 13.3514 11.764H2.64861C1.7439 11.764 1.00803 11.0077 1.00803 10.0779V2.72214C1.00803 2.48644 1.05591 2.26111 1.1416 2.0565L6.75382 6.94132C7.12931 7.26767 7.58797 7.43084 8.04662 7.43084C8.50528 7.43084 8.96393 7.26766 9.3369 6.94391L14.8811 2.12384C14.9516 2.31032 14.9894 2.51234 14.9894 2.72473V10.0779H14.992ZM13.3489 1.03602C13.6815 1.03602 13.989 1.13962 14.2485 1.31315L8.6842 6.15136C8.31375 6.47511 7.77445 6.47511 7.404 6.15136L1.80438 1.27689C2.05135 1.12408 2.33864 1.03602 2.64609 1.03602H13.3489Z" fill="#FFA31A"/>
</svg>
