<svg width="16" height="16" viewBox="0 0 16 16" fill="none" xmlns="http://www.w3.org/2000/svg">
<path d="M14.2104 4.34349H13.6145C13.4311 3.27978 12.9269 2.30471 12.1476 1.50693C11.0933 0.531856 9.76393 0 8.34289 0H7.65529C4.99656 0 2.84208 1.8615 2.42952 4.34349H1.8336C1.32936 4.34349 0.870961 4.52078 0.550081 4.91967C0.18336 5.22992 0 5.71745 0 6.20499V8.24377C0 9.26316 0.825121 10.1053 1.8336 10.1053H2.84208C2.9796 10.1053 3.07128 10.0609 3.16296 9.9723C3.25464 9.88366 3.30048 9.79501 3.30048 9.66205V8.68698V5.1856C3.30048 2.83657 5.27161 0.886427 7.70113 0.886427H8.38873C9.53473 0.886427 10.6807 1.32964 11.5059 2.12742C12.331 2.92521 12.7894 3.98892 12.7894 5.14127V9.66205C12.7894 11.5679 11.46 13.2078 9.62641 13.7839C9.35137 13.2078 8.70961 12.8089 7.97617 12.8532C7.51777 12.8532 7.10521 13.0748 6.83017 13.385C6.55513 13.6953 6.37177 14.0942 6.41761 14.4931C6.46345 15.3352 7.19689 16 8.06785 16C8.11369 16 8.11369 16 8.15953 16C8.61793 16 9.03049 15.7784 9.30553 15.4681C9.48889 15.2465 9.62641 14.9806 9.67225 14.7147C11.8267 14.1385 13.4311 12.3213 13.6145 10.1053H14.1646C14.6688 10.1053 15.1272 9.92798 15.4481 9.52909C15.769 9.17452 15.9982 8.7313 15.9982 8.24377V6.20499C16.044 5.1856 15.2189 4.34349 14.2104 4.34349ZM1.8336 9.21884C1.32936 9.21884 0.916801 8.77562 0.916801 8.24377V6.20499C0.916801 5.93906 1.00848 5.67313 1.19184 5.49584C1.3752 5.31856 1.6044 5.22992 1.8336 5.22992H2.38368V9.21884H1.8336ZM8.61793 14.8476C8.48041 14.9806 8.29705 15.0693 8.06785 15.0693C7.70113 15.0693 7.28857 14.8033 7.28857 14.4044C7.28857 14.2271 7.33441 14.0499 7.47193 13.9169C7.60945 13.7839 7.79281 13.6953 8.02201 13.6953C8.43457 13.6953 8.80129 13.9612 8.80129 14.3601C8.80129 14.5374 8.75545 14.7147 8.61793 14.8476ZM15.1272 8.24377C15.1272 8.5097 15.0355 8.77562 14.8522 8.95291C14.6688 9.13019 14.4396 9.21884 14.2104 9.21884H13.6603V5.22992H14.2104C14.7147 5.22992 15.1272 5.67313 15.1272 6.20499V8.24377Z" fill="#FFA31A"/>
</svg>
